<svg id="Group_1" data-name="Group 1" xmlns="http://www.w3.org/2000/svg" width="26.427" height="21.956" viewBox="0 0 26.427 21.956">
  <defs>
    <style>
      .cls-1 {
        fill: #be1e2d;
      }
    </style>
  </defs>
  <path id="Path_1" data-name="Path 1" class="cls-1" d="M13.082,0h.244A70.548,70.548,0,0,1,26.148,8.144a.982.982,0,0,1,.279.414,3.613,3.613,0,0,1-.667.754,1.746,1.746,0,0,1-.626.2A12.685,12.685,0,0,1,23.1,8.578q-2.427-1.246-4.856-2.487a27.272,27.272,0,0,1-3.116-1.735,5.822,5.822,0,0,0-1.673-.908,1.86,1.86,0,0,0-.867.072C8.952,5.283,5.38,7.181,1.81,9.081a1,1,0,0,1-.757.113A2.259,2.259,0,0,1,0,8.055V8.008A56.506,56.506,0,0,1,13.082,0Z" transform="translate(0 0)"/>
  <path id="Path_2" data-name="Path 2" class="cls-1" d="M147,76.018a1.961,1.961,0,0,1,1.766.406,1.6,1.6,0,0,1,.443,1.764,1.848,1.848,0,0,1-2.064,1.079A1.647,1.647,0,0,1,147,76.018Z" transform="translate(-134.278 -70.01)"/>
  <path id="Path_3" data-name="Path 3" class="cls-1" d="M60.847,114.912a27.756,27.756,0,0,0,4.523-2.242,1.893,1.893,0,0,1,1.123,1.353,29.974,29.974,0,0,1-2.381,2.454c-.031,1.66-.038,3.326-.034,4.989-.006.4.016.8-.017,1.2,1.033.327,2.121.467,3.127.881a.828.828,0,0,1,.436,1.1,1.533,1.533,0,0,1-1.618.809c-2.873-.182-5.754-.24-8.632-.15-1.169.044-2.339.1-3.509.15a7.422,7.422,0,0,0-1.685.184,4.414,4.414,0,0,1-1.789.118,3.665,3.665,0,0,1-.988.027,2.687,2.687,0,0,1-.723-1.14.548.548,0,0,1,.316-.6,10.8,10.8,0,0,1,3.331-.971q.191-3.056.365-6.113a11.52,11.52,0,0,0-2.11-1.621,2.237,2.237,0,0,1-.9-1.076.985.985,0,0,1,.427-.864,1.862,1.862,0,0,1,.819-.27,18.075,18.075,0,0,0,5.117,2,3.81,3.81,0,0,0,.875.053,22.88,22.88,0,0,0,2.8-.041,4.758,4.758,0,0,0,1.13-.228m-.885,2.874a.224.224,0,0,0-.2.165c.025,1.5.077,3,.088,4.5a2.082,2.082,0,0,0,1.143.459.73.73,0,0,0,.626-.485,4.79,4.79,0,0,0,.275-1.626,14.731,14.731,0,0,0-.052-1.849,12.163,12.163,0,0,0-.234-1.653c-.548.164-1.1.323-1.646.485m-5.075-.281a28.912,28.912,0,0,0,.016,3.646,10.982,10.982,0,0,0-.106,1.413c.03.268.336.344.562.324a11.65,11.65,0,0,0,1.274-.164,1.229,1.229,0,0,0,.767-1.084,17.968,17.968,0,0,0-.157-3.817,2.842,2.842,0,0,1-1.375-.227A6.954,6.954,0,0,0,54.886,117.5Z" transform="translate(-44.861 -103.851)"/>
</svg>
